<svg width="305" height="122" viewBox="0 0 305 122" fill="none" xmlns="http://www.w3.org/2000/svg">
<path d="M3.7959 72V39.2969H13.0273C15.8724 39.2969 18.388 39.9258 20.5742 41.1836C22.7604 42.4414 24.445 44.2308 25.6279 46.5518C26.8258 48.8727 27.4323 51.5381 27.4473 54.5479V56.6367C27.4473 59.7214 26.8483 62.4242 25.6504 64.7451C24.4674 67.0661 22.7679 68.848 20.5518 70.0908C18.3506 71.3337 15.7826 71.9701 12.8477 72H3.7959ZM8.1084 42.8457V68.4736H12.6455C15.9697 68.4736 18.5527 67.4404 20.3945 65.374C22.2513 63.3076 23.1797 60.3652 23.1797 56.5469V54.6377C23.1797 50.9242 22.3037 48.0417 20.5518 45.9902C18.8148 43.9238 16.3441 42.8757 13.1396 42.8457H8.1084ZM52.4688 56.8838H38.2959V68.4736H54.7598V72H33.9834V39.2969H54.5352V42.8457H38.2959V53.3574H52.4688V56.8838ZM69.7637 57.4229C66.0651 56.3597 63.3698 55.057 61.6777 53.5146C60.0007 51.9574 59.1621 50.0407 59.1621 47.7646C59.1621 45.1891 60.1878 43.0628 62.2393 41.3857C64.3057 39.6937 66.986 38.8477 70.2803 38.8477C72.5264 38.8477 74.5254 39.2819 76.2773 40.1504C78.0443 41.0189 79.4069 42.2168 80.3652 43.7441C81.3385 45.2715 81.8252 46.9411 81.8252 48.7529H77.4902C77.4902 46.7764 76.8613 45.2266 75.6035 44.1035C74.3457 42.9655 72.5713 42.3965 70.2803 42.3965C68.154 42.3965 66.4919 42.8682 65.2939 43.8115C64.111 44.7399 63.5195 46.0352 63.5195 47.6973C63.5195 49.0299 64.0811 50.1605 65.2041 51.0889C66.3421 52.0023 68.2663 52.8408 70.9766 53.6045C73.7018 54.3682 75.8281 55.2142 77.3555 56.1426C78.8978 57.056 80.0358 58.1266 80.7695 59.3545C81.5182 60.5824 81.8926 62.0273 81.8926 63.6895C81.8926 66.3398 80.8594 68.4661 78.793 70.0684C76.7266 71.6556 73.9639 72.4492 70.5049 72.4492C68.2588 72.4492 66.1624 72.0225 64.2158 71.1689C62.2692 70.3005 60.7643 69.1175 59.7012 67.6201C58.653 66.1227 58.1289 64.4232 58.1289 62.5215H62.4639C62.4639 64.498 63.1901 66.0628 64.6426 67.2158C66.11 68.3538 68.0641 68.9229 70.5049 68.9229C72.7809 68.9229 74.5254 68.4587 75.7383 67.5303C76.9512 66.6019 77.5576 65.3366 77.5576 63.7344C77.5576 62.1322 76.9961 60.8968 75.873 60.0283C74.75 59.1449 72.7135 58.2764 69.7637 57.4229ZM86.8789 69.8213C86.8789 69.1025 87.0885 68.5036 87.5078 68.0244C87.9421 67.5452 88.5859 67.3057 89.4395 67.3057C90.293 67.3057 90.9368 67.5452 91.3711 68.0244C91.8203 68.5036 92.0449 69.1025 92.0449 69.8213C92.0449 70.5101 91.8203 71.0866 91.3711 71.5508C90.9368 72.015 90.293 72.2471 89.4395 72.2471C88.5859 72.2471 87.9421 72.015 87.5078 71.5508C87.0885 71.0866 86.8789 70.5101 86.8789 69.8213ZM103.882 59.1973V72H99.5693V39.2969H111.631C115.21 39.2969 118.01 40.2103 120.031 42.0371C122.068 43.8639 123.086 46.2822 123.086 49.292C123.086 52.4665 122.09 54.9147 120.099 56.6367C118.122 58.3438 115.285 59.1973 111.586 59.1973H103.882ZM103.882 55.6709H111.631C113.937 55.6709 115.704 55.1318 116.932 54.0537C118.16 52.9606 118.773 51.3883 118.773 49.3369C118.773 47.3903 118.16 45.833 116.932 44.665C115.704 43.4971 114.019 42.8906 111.878 42.8457H103.882V55.6709ZM153.723 72H149.388V56.8838H132.901V72H128.589V39.2969H132.901V53.3574H149.388V39.2969H153.723V72ZM186.538 56.7041C186.538 59.9085 185.999 62.7087 184.921 65.1045C183.843 67.4854 182.315 69.3047 180.339 70.5625C178.362 71.8203 176.056 72.4492 173.421 72.4492C170.845 72.4492 168.562 71.8203 166.57 70.5625C164.579 69.2897 163.029 67.4854 161.921 65.1494C160.828 62.7985 160.266 60.0807 160.236 56.9961V54.6377C160.236 51.4932 160.783 48.7155 161.876 46.3047C162.969 43.8939 164.511 42.0521 166.503 40.7793C168.509 39.4915 170.8 38.8477 173.376 38.8477C175.996 38.8477 178.302 39.484 180.294 40.7568C182.3 42.0146 183.843 43.849 184.921 46.2598C185.999 48.6556 186.538 51.4482 186.538 54.6377V56.7041ZM182.248 54.5928C182.248 50.7145 181.469 47.7422 179.912 45.6758C178.355 43.5944 176.176 42.5537 173.376 42.5537C170.651 42.5537 168.502 43.5944 166.93 45.6758C165.372 47.7422 164.571 50.6172 164.526 54.3008V56.7041C164.526 60.4626 165.312 63.4199 166.885 65.5762C168.472 67.7174 170.651 68.7881 173.421 68.7881C176.206 68.7881 178.362 67.7773 179.89 65.7559C181.417 63.7194 182.203 60.807 182.248 57.0186V54.5928ZM214.974 42.8457H204.462V72H200.172V42.8457H189.683V39.2969H214.974V42.8457ZM244.353 56.7041C244.353 59.9085 243.813 62.7087 242.735 65.1045C241.657 67.4854 240.13 69.3047 238.153 70.5625C236.177 71.8203 233.871 72.4492 231.235 72.4492C228.66 72.4492 226.376 71.8203 224.385 70.5625C222.393 69.2897 220.843 67.4854 219.735 65.1494C218.642 62.7985 218.081 60.0807 218.051 56.9961V54.6377C218.051 51.4932 218.597 48.7155 219.69 46.3047C220.784 43.8939 222.326 42.0521 224.317 40.7793C226.324 39.4915 228.615 38.8477 231.19 38.8477C233.811 38.8477 236.117 39.484 238.108 40.7568C240.115 42.0146 241.657 43.849 242.735 46.2598C243.813 48.6556 244.353 51.4482 244.353 54.6377V56.7041ZM240.062 54.5928C240.062 50.7145 239.284 47.7422 237.727 45.6758C236.169 43.5944 233.991 42.5537 231.19 42.5537C228.465 42.5537 226.316 43.5944 224.744 45.6758C223.187 47.7422 222.386 50.6172 222.341 54.3008V56.7041C222.341 60.4626 223.127 63.4199 224.699 65.5762C226.286 67.7174 228.465 68.7881 231.235 68.7881C234.021 68.7881 236.177 67.7773 237.704 65.7559C239.231 63.7194 240.018 60.807 240.062 57.0186V54.5928Z" fill="black"/>
<line x1="96.9863" y1="82" x2="243.986" y2="80.9932" stroke="#628FAF" stroke-width="4"/>
</svg>
